HIERARCHY
ROOT Hips
{
	OFFSET 0.00000 0.00000 0.00000
	CHANNELS 6 Xposition Yposition Zposition Zrotation Yrotation Xrotation 
	JOINT LHipJoint
	{
		OFFSET 0 0 0
		CHANNELS 3 Zrotation Yrotation Xrotation
		JOINT LeftHip
		{
			OFFSET 1.41496 -1.84582 0.78394
			CHANNELS 3 Zrotation Yrotation Xrotation
			JOINT LeftKnee
			{
				OFFSET 2.58040 -7.08960 0.00000
				CHANNELS 3 Zrotation Yrotation Xrotation
				JOINT LeftAnkle
				{
					OFFSET 2.64719 -7.27309 0.00000
					CHANNELS 3 Zrotation Yrotation Xrotation
					JOINT LeftToe
					{
						OFFSET 0.20718 -0.56921 2.20259
						CHANNELS 3 Zrotation Yrotation Xrotation
						End Site
						{
							OFFSET 0.00000 -0.00000 1.14243
						}
					}
				}
			}
		}
	}
	JOINT RHipJoint
	{
		OFFSET 0 0 0
		CHANNELS 3 Zrotation Yrotation Xrotation
		JOINT RightHip
		{
			OFFSET -1.40551 -1.84582 0.78394
			CHANNELS 3 Zrotation Yrotation Xrotation
			JOINT RightKnee
			{
				OFFSET -2.56572 -7.04926 0.00000
				CHANNELS 3 Zrotation Yrotation Xrotation
				JOINT RightAnkle
				{
					OFFSET -2.57974 -7.08778 0.00000
					CHANNELS 3 Zrotation Yrotation Xrotation
					JOINT RightToe
					{
						OFFSET -0.26704 -0.73369 2.20815
						CHANNELS 3 Zrotation Yrotation Xrotation
						End Site
						{
							OFFSET -0.00000 -0.00000 1.16246
						}
					}
				}
			}
		}
	}
	JOINT lowerback
	{
		OFFSET 0 0 0
		CHANNELS 3 Zrotation Yrotation Xrotation
		JOINT Chest
		{
			OFFSET -0.04690 2.05196 -0.07017
			CHANNELS 3 Zrotation Yrotation Xrotation
			JOINT Chest2
			{
				OFFSET 0.04085 2.05260 0.00800
				CHANNELS 3 Zrotation Yrotation Xrotation
				JOINT lowerneck
				{
					OFFSET 0 0 0
					CHANNELS 3 Zrotation Yrotation Xrotation
					JOINT Neck
					{
						OFFSET -0.03582 1.80995 0.19301
						CHANNELS 3 Zrotation Yrotation Xrotation
						JOINT Head
						{
							OFFSET 0.00952 1.80195 -0.36389
							CHANNELS 3 Zrotation Yrotation Xrotation
							End Site
							{
								OFFSET 0.00392 1.85062 -0.14494
							}
						}
					}
				}
				JOINT LeftCollar
				{
					OFFSET 0 0 0
					CHANNELS 3 Zrotation Yrotation Xrotation
					JOINT LeftShoulder
					{
						OFFSET 3.55224 1.39726 -0.13667
CHANNELS 3 Zrotation Xrotation Yrotation
						JOINT LeftElbow
						{
OFFSET 0 -5.145070 -0.000000
CHANNELS 3 Zrotation Xrotation Yrotation
							JOINT LeftWrist
							{
OFFSET 0 -3.506460 0.000000
CHANNELS 3 Zrotation Xrotation Yrotation
								JOINT lhand
								{
									OFFSET 0 0 0
CHANNELS 3 Zrotation Xrotation Yrotation
									JOINT LFingers
									{
OFFSET 0 -0.629970 0.000000
CHANNELS 3 Zrotation Xrotation Yrotation
										End Site
										{
OFFSET 0 -0.507900 0.000000
										}
									}
								}
								JOINT LThumb
								{
OFFSET 0 0.000000 0.000000
CHANNELS 3 Zrotation Xrotation Yrotation
									End Site
									{
OFFSET 0 -0.515650 0.515650
									}
								}
							}
						}
					}
				}
				JOINT RightCollar
				{
					OFFSET 0 0 0
					CHANNELS 3 Zrotation Yrotation Xrotation
					JOINT RightShoulder
					{
						OFFSET -3.06467 1.61290 -0.28813
CHANNELS 3 Zrotation Xrotation Yrotation
						JOINT RightElbow
						{
OFFSET 0 -5.232000 -0.000000
CHANNELS 3 Zrotation Xrotation Yrotation
							JOINT RightWrist
							{
OFFSET 0 -3.656410 0.000000
CHANNELS 3 Zrotation Xrotation Yrotation
								JOINT rhand
								{
									OFFSET 0 0 0
CHANNELS 3 Zrotation Xrotation Yrotation
									JOINT RFingers
									{
OFFSET 0 -0.656810 0.000000
CHANNELS 3 Zrotation Xrotation Yrotation
										End Site
										{
OFFSET 0 -0.529530 0.000000
										}
									}
								}
								JOINT RThumb
								{
OFFSET 0 0.000000 0.000000
CHANNELS 3 Zrotation Xrotation Yrotation
									End Site
									{
OFFSET 0 -0.537620 0.537620
									}
								}
							}
						}
					}
				}
			}
		}
	}
}
MOTION
Frames: 12
Frame Time: 0.008333333333333333
17.082800 15.045000 41.112800 177.708000 -15.577500 -151.565000 0.000000 0.000000 0.000000 -22.860100 -7.561200 -16.622200 13.404700 18.923500 70.378000 0.040500 -1.253700 4.482800 0.236600 -3.130700 -8.642700 0.000000 0.000000 0.000000 15.253800 11.938300 -67.496000 -13.249500 -18.870400 69.898600 -1.842700 -5.871500 -28.306900 -2.282600 9.431400 -27.154300 0.923400 -1.825600 26.074200 3.335000 -2.235500 2.053800 4.109400 -1.185600 -12.153300 -3.978900 1.378400 -18.038400 -2.667900 0.076900 -13.159100 -0.161900 -0.821300 -1.277600 0.000000 0.000000 0.000000 2.917500 -0.728100 -48.653500 111.022100 -58.262500 78.099500 24.912300 -10.929100 10.902200 0.000000 0.000000 0.000000 -7.125000 0.000000 0.000000 -1.530800 17.992600 -0.983500 0.000000 0.000000 0.000000 -4.331900 29.506000 15.720500 -46.143200 -51.316400 -23.127700 -31.894500 -7.947400 4.897100 0.000000 0.000000 0.000000 7.125000 0.000000 -0.000000 -4.371600 35.714000 -1.000000
17.051719 15.047753 40.974865 177.770698 -15.663901 -151.610112 0.000000 0.000000 0.000000 -22.587632 -7.847546 -17.914578 13.976550 19.092211 72.120885 0.038703 -0.874760 4.175963 0.238970 -3.146069 -8.685594 0.000000 0.000000 0.000000 15.459403 11.876176 -66.833085 -13.286239 -18.883016 70.012144 -1.915299 -6.049462 -28.878444 -2.403140 9.654016 -27.868023 1.111302 -1.822312 26.233582 3.367916 -2.182819 2.107743 4.027434 -1.175545 -12.184190 -3.952636 1.363108 -18.061721 -2.755486 0.020701 -13.268859 -0.195581 -0.859339 -1.310211 0.000000 0.000000 0.000000 2.520822 -0.629619 -47.852268 106.764000 -58.784383 74.448384 25.122376 -11.299170 10.846460 0.000000 0.000000 0.000000 -7.125000 0.000000 0.000000 -1.379981 18.033277 -0.885516 0.000000 0.000000 0.000000 -4.226843 28.203185 15.675044 -45.020221 -50.759077 -22.259947 -33.292432 -9.726107 3.325372 0.000000 0.000000 0.000000 7.125000 0.000000 0.000000 -5.429282 33.873704 -1.564357
17.020637 15.050505 40.836930 177.833396 -15.750301 -151.655224 0.000000 0.000000 0.000000 -22.315164 -8.133891 -19.206956 14.548400 19.260921 73.863770 0.036906 -0.495821 3.869126 0.241341 -3.161437 -8.728489 0.000000 0.000000 0.000000 15.665006 11.814051 -66.170170 -13.322979 -18.895632 70.125688 -1.987899 -6.227425 -29.449988 -2.523681 9.876631 -28.581746 1.299205 -1.819024 26.392965 3.400833 -2.130137 2.161686 3.945468 -1.165491 -12.215080 -3.926371 1.347816 -18.085041 -2.843072 -0.035497 -13.378619 -0.229262 -0.897378 -1.342821 0.000000 0.000000 0.000000 2.124143 -0.531137 -47.051035 102.505900 -59.306266 70.797267 25.332452 -11.669240 10.790720 0.000000 0.000000 0.000000 -7.125000 0.000000 0.000000 -1.229162 18.073954 -0.787531 0.000000 0.000000 0.000000 -4.121786 26.900370 15.629588 -43.897241 -50.201755 -21.392193 -34.690364 -11.504814 1.753645 0.000000 0.000000 0.000000 7.125000 0.000000 0.000000 -6.486964 32.033408 -2.128714
16.990526 15.046808 40.701844 177.886250 -15.822378 -151.693578 0.000000 0.000000 0.000000 -22.051379 -8.411819 -20.520357 15.118796 19.411694 75.589760 0.030012 -0.046599 3.163189 0.346343 -3.615851 -10.019749 0.000000 0.000000 0.000000 15.880276 11.749400 -65.505492 -13.363127 -18.909306 70.249649 -2.036846 -6.582298 -29.971083 -2.700209 10.181635 -29.577921 1.465790 -1.806040 26.535849 3.427373 -2.070257 2.209650 3.864942 -1.150676 -12.243546 -3.895744 1.331642 -18.067373 -2.935094 -0.094179 -13.502306 -0.265000 -0.935036 -1.386141 0.000000 0.000000 0.000000 1.753306 -0.445349 -46.241855 98.085536 -59.679225 66.993187 25.627222 -12.189983 10.788162 0.000000 0.000000 0.000000 -7.125000 0.000000 0.000000 -1.022076 18.047258 -0.654493 0.000000 0.000000 0.000000 -4.028820 25.602227 15.592095 -42.994894 -49.744861 -20.697590 -35.770527 -12.902520 0.773589 0.000000 0.000000 0.000000 7.125000 0.000000 0.000000 -7.310704 30.885330 -2.540107
16.961968 15.032778 40.571326 177.923334 -15.871504 -151.721104 0.000000 0.000000 0.000000 -21.801505 -8.676258 -21.867443 15.686861 19.533726 77.288680 0.014949 0.515235 1.817785 0.615791 -4.773735 -13.311233 0.000000 0.000000 0.000000 16.111034 11.680700 -64.837990 -13.408735 -18.924674 70.390298 -2.047894 -7.220631 -30.411344 -2.966446 10.618646 -31.026662 1.598220 -1.777521 26.652299 3.443697 -1.998843 2.248033 3.786723 -1.128235 -12.268129 -3.858125 1.314056 -17.984031 -3.034226 -0.156838 -13.648307 -0.304033 -0.972081 -1.446622 0.000000 0.000000 0.000000 1.423875 -0.379898 -45.419940 93.405181 -59.813566 62.944016 26.057696 -12.952144 10.870816 0.000000 0.000000 0.000000 -7.125000 0.000000 0.000000 -0.724835 17.912610 -0.465291 0.000000 0.000000 0.000000 -3.955226 24.311569 15.567360 -42.446058 -49.448881 -20.280420 -36.341536 -13.689760 0.741552 0.000000 0.000000 0.000000 7.125000 0.000000 0.000000 -7.759605 30.846373 -2.706409
16.933410 15.018747 40.440807 177.960417 -15.920630 -151.748629 0.000000 0.000000 0.000000 -21.551631 -8.940698 -23.214529 16.254926 19.655757 78.987600 -0.000114 1.077069 0.472382 0.885239 -5.931618 -16.602716 0.000000 0.000000 0.000000 16.341793 11.612000 -64.170487 -13.454344 -18.940043 70.530948 -2.058943 -7.858964 -30.851606 -3.232682 11.055658 -32.475402 1.730650 -1.749001 26.768749 3.460022 -1.927428 2.286417 3.708503 -1.105794 -12.292711 -3.820507 1.296470 -17.900689 -3.133357 -0.219498 -13.794309 -0.343066 -1.009126 -1.507102 0.000000 0.000000 0.000000 1.094444 -0.314448 -44.598025 88.724826 -59.947908 58.894844 26.488171 -13.714305 10.953470 0.000000 0.000000 0.000000 -7.125000 0.000000 0.000000 -0.427594 17.777963 -0.276089 0.000000 0.000000 0.000000 -3.881633 23.020911 15.542625 -41.897223 -49.152902 -19.863250 -36.912545 -14.477000 0.709515 0.000000 0.000000 0.000000 7.125000 0.000000 0.000000 -8.208506 30.807416 -2.872711
16.902501 15.011181 40.304647 178.020125 -15.941990 -151.805831 0.000000 0.000000 0.000000 -21.273668 -9.191798 -24.528795 16.788409 19.741207 80.568256 -0.006156 1.562743 -0.585428 0.982418 -6.306698 -17.677686 0.000000 0.000000 0.000000 16.523689 11.557874 -63.515326 -13.499601 -18.955088 70.670275 -2.118472 -8.057531 -31.326802 -3.341811 11.227964 -33.053633 1.877360 -1.704879 26.828726 3.469030 -1.838766 2.356356 3.602371 -1.078828 -12.250918 -3.781977 1.269864 -17.867326 -3.224056 -0.293999 -13.924474 -0.380219 -1.054017 -1.555448 0.000000 0.000000 0.000000 0.816549 -0.319221 -43.729598 83.992406 -59.737918 54.808005 26.724604 -14.463155 10.948271 0.000000 0.000000 0.000000 -7.125000 0.000000 0.000000 -0.261251 17.759464 -0.169128 0.000000 0.000000 0.000000 -3.838303 21.683330 15.531141 -41.452078 -48.904463 -19.527411 -36.983761 -14.373663 1.312899 0.000000 0.000000 0.000000 7.125000 0.000000 0.000000 -8.321714 31.553496 -2.761262
16.870884 15.005561 40.166789 178.086646 -15.954988 -151.871970 0.000000 0.000000 0.000000 -20.987246 -9.438881 -25.833177 17.311477 19.815642 82.113299 -0.009482 2.025484 -1.556633 1.027721 -6.446048 -18.085184 0.000000 0.000000 0.000000 16.690870 11.508136 -62.863880 -13.544751 -18.970037 70.809205 -2.192601 -8.123670 -31.812519 -3.403630 11.320558 -33.369722 2.028370 -1.656059 26.871697 3.475835 -1.744911 2.435799 3.487832 -1.050499 -12.189138 -3.743173 1.240541 -17.849014 -3.312215 -0.372065 -14.049870 -0.416805 -1.101269 -1.600139 0.000000 0.000000 0.000000 0.554174 -0.345141 -42.847164 79.244307 -59.424238 50.709823 26.902605 -15.207998 10.916617 0.000000 0.000000 0.000000 -7.125000 0.000000 0.000000 -0.134326 17.775941 -0.086933 0.000000 0.000000 0.000000 -3.804087 20.331618 15.523648 -41.038157 -48.670340 -19.216062 -36.904471 -14.002140 2.107633 0.000000 0.000000 0.000000 7.125000 0.000000 0.000000 -8.333833 32.535978 -2.566172
16.838806 15.000712 40.027510 178.163451 -15.954986 -151.949795 0.000000 0.000000 0.000000 -20.689646 -9.671385 -27.150309 17.824027 19.884222 83.625849 -0.011085 2.455649 -2.521977 1.061390 -6.549767 -18.388429 0.000000 0.000000 0.000000 16.869370 11.452093 -62.197131 -13.588942 -18.984622 70.945160 -2.268973 -8.160307 -32.291149 -3.464250 11.410990 -33.678892 2.174659 -1.599280 26.915129 3.483791 -1.640637 2.507050 3.373919 -1.016578 -12.137127 -3.707355 1.209325 -17.826786 -3.401309 -0.447894 -14.156269 -0.453187 -1.145840 -1.639122 0.000000 0.000000 0.000000 0.321178 -0.348718 -41.989552 74.539458 -59.043029 46.657538 27.157185 -16.049795 10.943767 0.000000 0.000000 0.000000 -7.125000 0.000000 0.000000 0.041319 17.717662 0.028551 0.000000 0.000000 0.000000 -3.762841 19.027253 15.533684 -40.734911 -48.498954 -18.987919 -36.791315 -13.522684 2.806054 0.000000 0.000000 0.000000 7.125000 0.000000 0.000000 -8.308627 33.397808 -2.384948
16.804169 15.000139 39.880361 178.297257 -15.882922 -152.092394 0.000000 0.000000 0.000000 -20.330089 -9.823083 -28.538111 18.278281 19.920349 84.958292 -0.003133 2.705256 -3.454836 1.030577 -6.455988 -18.113820 0.000000 0.000000 0.000000 17.110604 11.361105 -61.445560 -13.627823 -18.997200 71.064630 -2.357783 -8.033420 -32.730492 -3.518232 11.489439 -33.949716 2.294779 -1.498390 26.961120 3.498128 -1.478617 2.532894 3.263472 -0.951663 -12.139268 -3.688087 1.167616 -17.782860 -3.495585 -0.511318 -14.157378 -0.488436 -1.175545 -1.646462 0.000000 0.000000 0.000000 0.251025 -0.228445 -41.269521 70.074341 -58.287520 42.859655 27.836233 -17.428994 11.296862 0.000000 0.000000 0.000000 -7.125000 0.000000 0.000000 0.487008 17.245020 0.328544 0.000000 0.000000 0.000000 -3.682634 17.985322 15.640882 -41.045112 -48.675311 -19.220972 -36.490442 -12.444969 2.970636 0.000000 0.000000 0.000000 7.125000 0.000000 0.000000 -8.076530 33.590871 -2.280579
16.769533 14.999565 39.733213 178.431063 -15.810857 -152.234993 0.000000 0.000000 0.000000 -19.970532 -9.974782 -29.925912 18.732534 19.956477 86.290736 0.004819 2.954862 -4.387696 0.999763 -6.362209 -17.839212 0.000000 0.000000 0.000000 17.351837 11.270117 -60.693989 -13.666703 -19.009778 71.184099 -2.446592 -7.906534 -33.169836 -3.572213 11.567887 -34.220540 2.414899 -1.397500 27.007112 3.512464 -1.316596 2.558737 3.153024 -0.886748 -12.141409 -3.668819 1.125907 -17.738933 -3.589861 -0.574742 -14.158487 -0.523684 -1.205250 -1.653802 0.000000 0.000000 0.000000 0.180872 -0.108172 -40.549489 65.609223 -57.532012 39.061772 28.515281 -18.808193 11.649958 0.000000 0.000000 0.000000 -7.125000 0.000000 0.000000 0.932698 16.772378 0.628538 0.000000 0.000000 0.000000 -3.602427 16.943391 15.748080 -41.355313 -48.851668 -19.454024 -36.189569 -11.367255 3.135218 0.000000 0.000000 0.000000 7.125000 0.000000 0.000000 -7.844433 33.783934 -2.176211
16.736046 14.991210 39.590787 178.559531 -15.757726 -152.365067 0.000000 0.000000 0.000000 -19.604425 -10.133194 -31.318230 19.185330 19.978621 87.616875 0.012853 3.269233 -5.237125 1.007841 -6.386337 -17.909988 0.000000 0.000000 0.000000 17.594652 11.185248 -59.974472 -13.710429 -19.023773 71.318251 -2.522156 -7.904084 -33.596592 -3.654716 11.684509 -34.627096 2.545963 -1.309916 27.062692 3.529511 -1.169812 2.593103 3.044835 -0.830006 -12.137349 -3.647662 1.089043 -17.701187 -3.682864 -0.637345 -14.181033 -0.558789 -1.236434 -1.667549 0.000000 0.000000 0.000000 0.084539 0.016639 -39.750443 61.593066 -56.632250 35.689112 28.966337 -19.749274 11.855372 0.000000 0.000000 0.000000 -7.125000 0.000000 0.000000 1.229720 16.489143 0.830789 0.000000 0.000000 0.000000 -3.544458 15.873061 15.876654 -41.556437 -48.965333 -19.605330 -36.035680 -10.783696 3.208997 0.000000 0.000000 0.000000 7.125000 0.000000 0.000000 -7.724823 33.869871 -2.125148
